<svg width="101" height="101" viewBox="0 0 101 101" fill="none" xmlns="http://www.w3.org/2000/svg">
<path d="M92.2803 48.8461C91.4302 46.7925 89.608 46.3001 88.375 46.1823V33.6667C88.375 29.0249 84.6001 25.25 79.9583 25.25H54.7083V19.4004C55.9919 18.2473 56.8125 16.5893 56.8125 14.7292C56.8125 13.055 56.1474 11.4494 54.9636 10.2656C53.7798 9.08174 52.1742 8.41667 50.5 8.41667C48.8258 8.41667 47.2202 9.08174 46.0364 10.2656C44.8526 11.4494 44.1875 13.055 44.1875 14.7292C44.1875 16.5893 45.0081 18.2473 46.2917 19.4004V25.25H21.0417C16.3999 25.25 12.625 29.0249 12.625 33.6667V46.279L12.2799 46.3043C11.2193 46.3809 10.227 46.8561 9.5025 47.6345C8.77799 48.4128 8.37502 49.4366 8.37459 50.5V58.9167C8.37459 60.0328 8.81796 61.1032 9.60718 61.8924C10.3964 62.6816 11.4668 63.125 12.5829 63.125H12.625V84.1667C12.625 88.8085 16.3999 92.5833 21.0417 92.5833H79.9583C84.6001 92.5833 88.375 88.8085 88.375 84.1667V63.125C89.4911 63.125 90.5615 62.6816 91.3507 61.8924C92.14 61.1032 92.5833 60.0328 92.5833 58.9167V50.7609C92.6318 50.1078 92.5281 49.4524 92.2803 48.8461ZM21.0417 84.1667V33.6667H79.9583L79.9625 50.4832L79.9583 50.5V58.9167L79.9625 58.9377L79.9668 84.1667H21.0417Z" fill="black"/>
<path d="M35.7708 58.9167C39.2571 58.9167 42.0833 55.1484 42.0833 50.5C42.0833 45.8516 39.2571 42.0833 35.7708 42.0833C32.2845 42.0833 29.4583 45.8516 29.4583 50.5C29.4583 55.1484 32.2845 58.9167 35.7708 58.9167Z" fill="black"/>
<path d="M65.2292 58.9167C68.7155 58.9167 71.5417 55.1484 71.5417 50.5C71.5417 45.8516 68.7155 42.0833 65.2292 42.0833C61.7429 42.0833 58.9167 45.8516 58.9167 50.5C58.9167 55.1484 61.7429 58.9167 65.2292 58.9167Z" fill="black"/>
<path d="M33.6667 67.3333H67.3333V75.75H33.6667V67.3333Z" fill="black"/>
</svg>
